<svg xmlns="http://www.w3.org/2000/svg" version="1.1" xmlns:xlink="http://www.w3.org/1999/xlink" xmlns:svgjs="http://svgjs.dev/svgjs" viewBox="0 0 1422 800"><g stroke-width="1" stroke="#00a36c" fill="none" stroke-linecap="round"><line x1="82" y1="0" x2="0" y2="82" opacity="0.58"></line><line x1="82" y1="0" x2="164" y2="82" opacity="0.77"></line><line x1="246" y1="0" x2="164" y2="82" opacity="0.84"></line><line x1="246" y1="0" x2="328" y2="82" opacity="0.63"></line><line x1="328" y1="0" x2="410" y2="82" opacity="0.12"></line><line x1="492" y1="0" x2="410" y2="82" opacity="0.81"></line><line x1="492" y1="0" x2="574" y2="82" opacity="0.50"></line><line x1="574" y1="0" x2="656" y2="82" opacity="0.46"></line><line x1="738" y1="0" x2="656" y2="82" opacity="0.53"></line><line x1="820" y1="0" x2="738" y2="82" opacity="0.97"></line><line x1="820" y1="0" x2="902" y2="82" opacity="0.85"></line><line x1="902" y1="0" x2="984" y2="82" opacity="0.22"></line><line x1="984" y1="0" x2="1066" y2="82" opacity="0.29"></line><line x1="1066" y1="0" x2="1148" y2="82" opacity="0.24"></line><line x1="1230" y1="0" x2="1148" y2="82" opacity="0.59"></line><line x1="1312" y1="0" x2="1230" y2="82" opacity="0.42"></line><line x1="1312" y1="0" x2="1394" y2="82" opacity="0.85"></line><line x1="1476" y1="0" x2="1394" y2="82" opacity="0.21"></line><line x1="0" y1="82" x2="82" y2="164" opacity="0.20"></line><line x1="82" y1="82" x2="164" y2="164" opacity="0.70"></line><line x1="164" y1="82" x2="246" y2="164" opacity="0.56"></line><line x1="246" y1="82" x2="328" y2="164" opacity="0.20"></line><line x1="328" y1="82" x2="410" y2="164" opacity="0.44"></line><line x1="410" y1="82" x2="492" y2="164" opacity="0.81"></line><line x1="574" y1="82" x2="492" y2="164" opacity="0.15"></line><line x1="656" y1="82" x2="574" y2="164" opacity="0.94"></line><line x1="656" y1="82" x2="738" y2="164" opacity="0.53"></line><line x1="820" y1="82" x2="738" y2="164" opacity="0.81"></line><line x1="820" y1="82" x2="902" y2="164" opacity="0.68"></line><line x1="984" y1="82" x2="902" y2="164" opacity="0.37"></line><line x1="984" y1="82" x2="1066" y2="164" opacity="0.61"></line><line x1="1148" y1="82" x2="1066" y2="164" opacity="0.29"></line><line x1="1148" y1="82" x2="1230" y2="164" opacity="0.21"></line><line x1="1312" y1="82" x2="1230" y2="164" opacity="0.76"></line><line x1="1312" y1="82" x2="1394" y2="164" opacity="0.18"></line><line x1="1394" y1="82" x2="1476" y2="164" opacity="0.54"></line><line x1="82" y1="164" x2="0" y2="246" opacity="0.09"></line><line x1="82" y1="164" x2="164" y2="246" opacity="0.16"></line><line x1="164" y1="164" x2="246" y2="246" opacity="0.09"></line><line x1="246" y1="164" x2="328" y2="246" opacity="0.89"></line><line x1="328" y1="164" x2="410" y2="246" opacity="0.72"></line><line x1="410" y1="164" x2="492" y2="246" opacity="0.30"></line><line x1="492" y1="164" x2="574" y2="246" opacity="0.93"></line><line x1="656" y1="164" x2="574" y2="246" opacity="0.77"></line><line x1="656" y1="164" x2="738" y2="246" opacity="0.89"></line><line x1="738" y1="164" x2="820" y2="246" opacity="0.98"></line><line x1="902" y1="164" x2="820" y2="246" opacity="0.11"></line><line x1="902" y1="164" x2="984" y2="246" opacity="0.95"></line><line x1="984" y1="164" x2="1066" y2="246" opacity="0.62"></line><line x1="1066" y1="164" x2="1148" y2="246" opacity="0.99"></line><line x1="1230" y1="164" x2="1148" y2="246" opacity="0.73"></line><line x1="1230" y1="164" x2="1312" y2="246" opacity="0.99"></line><line x1="1394" y1="164" x2="1312" y2="246" opacity="0.77"></line><line x1="1476" y1="164" x2="1394" y2="246" opacity="0.50"></line><line x1="82" y1="246" x2="0" y2="328" opacity="0.56"></line><line x1="82" y1="246" x2="164" y2="328" opacity="0.98"></line><line x1="164" y1="246" x2="246" y2="328" opacity="0.56"></line><line x1="246" y1="246" x2="328" y2="328" opacity="0.53"></line><line x1="328" y1="246" x2="410" y2="328" opacity="0.46"></line><line x1="410" y1="246" x2="492" y2="328" opacity="0.48"></line><line x1="492" y1="246" x2="574" y2="328" opacity="0.08"></line><line x1="574" y1="246" x2="656" y2="328" opacity="0.67"></line><line x1="738" y1="246" x2="656" y2="328" opacity="0.34"></line><line x1="738" y1="246" x2="820" y2="328" opacity="0.73"></line><line x1="902" y1="246" x2="820" y2="328" opacity="0.14"></line><line x1="984" y1="246" x2="902" y2="328" opacity="0.21"></line><line x1="1066" y1="246" x2="984" y2="328" opacity="0.96"></line><line x1="1066" y1="246" x2="1148" y2="328" opacity="0.34"></line><line x1="1148" y1="246" x2="1230" y2="328" opacity="0.84"></line><line x1="1230" y1="246" x2="1312" y2="328" opacity="0.30"></line><line x1="1394" y1="246" x2="1312" y2="328" opacity="0.30"></line><line x1="1394" y1="246" x2="1476" y2="328" opacity="0.30"></line><line x1="0" y1="328" x2="82" y2="410" opacity="0.40"></line><line x1="82" y1="328" x2="164" y2="410" opacity="0.73"></line><line x1="164" y1="328" x2="246" y2="410" opacity="0.55"></line><line x1="328" y1="328" x2="246" y2="410" opacity="0.17"></line><line x1="328" y1="328" x2="410" y2="410" opacity="0.13"></line><line x1="410" y1="328" x2="492" y2="410" opacity="0.61"></line><line x1="492" y1="328" x2="574" y2="410" opacity="0.64"></line><line x1="574" y1="328" x2="656" y2="410" opacity="0.82"></line><line x1="656" y1="328" x2="738" y2="410" opacity="0.81"></line><line x1="738" y1="328" x2="820" y2="410" opacity="0.79"></line><line x1="820" y1="328" x2="902" y2="410" opacity="0.13"></line><line x1="902" y1="328" x2="984" y2="410" opacity="0.58"></line><line x1="1066" y1="328" x2="984" y2="410" opacity="0.86"></line><line x1="1148" y1="328" x2="1066" y2="410" opacity="0.93"></line><line x1="1230" y1="328" x2="1148" y2="410" opacity="0.68"></line><line x1="1230" y1="328" x2="1312" y2="410" opacity="0.57"></line><line x1="1312" y1="328" x2="1394" y2="410" opacity="0.18"></line><line x1="1476" y1="328" x2="1394" y2="410" opacity="0.95"></line><line x1="82" y1="410" x2="0" y2="492" opacity="0.74"></line><line x1="82" y1="410" x2="164" y2="492" opacity="0.58"></line><line x1="164" y1="410" x2="246" y2="492" opacity="0.66"></line><line x1="246" y1="410" x2="328" y2="492" opacity="0.43"></line><line x1="328" y1="410" x2="410" y2="492" opacity="0.30"></line><line x1="410" y1="410" x2="492" y2="492" opacity="0.48"></line><line x1="574" y1="410" x2="492" y2="492" opacity="0.23"></line><line x1="656" y1="410" x2="574" y2="492" opacity="0.10"></line><line x1="738" y1="410" x2="656" y2="492" opacity="0.38"></line><line x1="738" y1="410" x2="820" y2="492" opacity="0.07"></line><line x1="820" y1="410" x2="902" y2="492" opacity="0.46"></line><line x1="984" y1="410" x2="902" y2="492" opacity="0.82"></line><line x1="1066" y1="410" x2="984" y2="492" opacity="0.70"></line><line x1="1066" y1="410" x2="1148" y2="492" opacity="0.78"></line><line x1="1230" y1="410" x2="1148" y2="492" opacity="0.27"></line><line x1="1230" y1="410" x2="1312" y2="492" opacity="0.21"></line><line x1="1312" y1="410" x2="1394" y2="492" opacity="0.82"></line><line x1="1394" y1="410" x2="1476" y2="492" opacity="0.94"></line><line x1="82" y1="492" x2="0" y2="574" opacity="0.49"></line><line x1="164" y1="492" x2="82" y2="574" opacity="0.22"></line><line x1="246" y1="492" x2="164" y2="574" opacity="0.24"></line><line x1="246" y1="492" x2="328" y2="574" opacity="0.90"></line><line x1="328" y1="492" x2="410" y2="574" opacity="0.33"></line><line x1="492" y1="492" x2="410" y2="574" opacity="0.53"></line><line x1="574" y1="492" x2="492" y2="574" opacity="0.56"></line><line x1="656" y1="492" x2="574" y2="574" opacity="0.43"></line><line x1="738" y1="492" x2="656" y2="574" opacity="0.90"></line><line x1="738" y1="492" x2="820" y2="574" opacity="0.17"></line><line x1="820" y1="492" x2="902" y2="574" opacity="0.50"></line><line x1="984" y1="492" x2="902" y2="574" opacity="0.41"></line><line x1="984" y1="492" x2="1066" y2="574" opacity="0.11"></line><line x1="1066" y1="492" x2="1148" y2="574" opacity="0.72"></line><line x1="1230" y1="492" x2="1148" y2="574" opacity="0.59"></line><line x1="1230" y1="492" x2="1312" y2="574" opacity="0.54"></line><line x1="1312" y1="492" x2="1394" y2="574" opacity="0.40"></line><line x1="1394" y1="492" x2="1476" y2="574" opacity="0.26"></line><line x1="0" y1="574" x2="82" y2="656" opacity="0.68"></line><line x1="82" y1="574" x2="164" y2="656" opacity="0.18"></line><line x1="164" y1="574" x2="246" y2="656" opacity="0.26"></line><line x1="328" y1="574" x2="246" y2="656" opacity="0.66"></line><line x1="410" y1="574" x2="328" y2="656" opacity="0.26"></line><line x1="492" y1="574" x2="410" y2="656" opacity="0.12"></line><line x1="574" y1="574" x2="492" y2="656" opacity="0.89"></line><line x1="574" y1="574" x2="656" y2="656" opacity="0.58"></line><line x1="738" y1="574" x2="656" y2="656" opacity="0.17"></line><line x1="738" y1="574" x2="820" y2="656" opacity="0.85"></line><line x1="902" y1="574" x2="820" y2="656" opacity="0.79"></line><line x1="984" y1="574" x2="902" y2="656" opacity="0.85"></line><line x1="984" y1="574" x2="1066" y2="656" opacity="0.41"></line><line x1="1148" y1="574" x2="1066" y2="656" opacity="0.12"></line><line x1="1230" y1="574" x2="1148" y2="656" opacity="0.50"></line><line x1="1230" y1="574" x2="1312" y2="656" opacity="0.19"></line><line x1="1394" y1="574" x2="1312" y2="656" opacity="0.97"></line><line x1="1394" y1="574" x2="1476" y2="656" opacity="0.61"></line><line x1="0" y1="656" x2="82" y2="738" opacity="0.09"></line><line x1="164" y1="656" x2="82" y2="738" opacity="0.10"></line><line x1="164" y1="656" x2="246" y2="738" opacity="0.63"></line><line x1="246" y1="656" x2="328" y2="738" opacity="0.99"></line><line x1="328" y1="656" x2="410" y2="738" opacity="0.22"></line><line x1="492" y1="656" x2="410" y2="738" opacity="0.69"></line><line x1="574" y1="656" x2="492" y2="738" opacity="0.61"></line><line x1="574" y1="656" x2="656" y2="738" opacity="0.35"></line><line x1="738" y1="656" x2="656" y2="738" opacity="0.90"></line><line x1="738" y1="656" x2="820" y2="738" opacity="0.15"></line><line x1="902" y1="656" x2="820" y2="738" opacity="0.93"></line><line x1="984" y1="656" x2="902" y2="738" opacity="0.18"></line><line x1="984" y1="656" x2="1066" y2="738" opacity="0.18"></line><line x1="1066" y1="656" x2="1148" y2="738" opacity="0.18"></line><line x1="1148" y1="656" x2="1230" y2="738" opacity="0.77"></line><line x1="1230" y1="656" x2="1312" y2="738" opacity="0.87"></line><line x1="1312" y1="656" x2="1394" y2="738" opacity="0.15"></line><line x1="1476" y1="656" x2="1394" y2="738" opacity="0.31"></line><line x1="0" y1="738" x2="82" y2="820" opacity="0.49"></line><line x1="82" y1="738" x2="164" y2="820" opacity="0.09"></line><line x1="246" y1="738" x2="164" y2="820" opacity="0.31"></line><line x1="246" y1="738" x2="328" y2="820" opacity="0.07"></line><line x1="328" y1="738" x2="410" y2="820" opacity="0.26"></line><line x1="492" y1="738" x2="410" y2="820" opacity="0.36"></line><line x1="574" y1="738" x2="492" y2="820" opacity="0.25"></line><line x1="574" y1="738" x2="656" y2="820" opacity="0.19"></line><line x1="738" y1="738" x2="656" y2="820" opacity="0.39"></line><line x1="738" y1="738" x2="820" y2="820" opacity="0.59"></line><line x1="820" y1="738" x2="902" y2="820" opacity="0.62"></line><line x1="902" y1="738" x2="984" y2="820" opacity="0.62"></line><line x1="1066" y1="738" x2="984" y2="820" opacity="0.50"></line><line x1="1066" y1="738" x2="1148" y2="820" opacity="0.15"></line><line x1="1148" y1="738" x2="1230" y2="820" opacity="0.51"></line><line x1="1230" y1="738" x2="1312" y2="820" opacity="0.14"></line><line x1="1312" y1="738" x2="1394" y2="820" opacity="0.12"></line><line x1="1394" y1="738" x2="1476" y2="820" opacity="0.69"></line></g></svg>